<?xml version="1.0" standalone="no"?>
<!DOCTYPE svg PUBLIC "-//W3C//DTD SVG 20010904//EN"
 "http://www.w3.org/TR/2001/REC-SVG-20010904/DTD/svg10.dtd">
<svg version="1.0" xmlns="http://www.w3.org/2000/svg"
 width="100.000000pt" height="100.000000pt" viewBox="0 0 100.000000 100.000000"
 preserveAspectRatio="xMidYMid meet">

<g transform="translate(0.000000,100.000000) scale(0.100000,-0.100000)"
fill="#000000" stroke="none">
<path d="M738 833 c7 -3 16 -2 19 1 4 3 -2 6 -13 5 -11 0 -14 -3 -6 -6z"/>
<path d="M701 816 c-6 -7 -22 -11 -34 -9 -18 4 -32 -5 -60 -40 -20 -25 -37
-52 -37 -60 0 -28 36 -49 77 -44 l38 4 -41 1 c-61 3 -87 44 -46 74 10 7 21 21
25 31 9 23 36 33 56 20 13 -8 19 -6 28 13 13 27 11 30 -6 10z"/>
<path d="M790 785 c0 -9 8 -11 21 -8 13 4 26 0 33 -9 6 -8 19 -17 29 -21 23
-9 33 -36 20 -56 -8 -12 -32 -17 -99 -22 l-89 -5 86 -2 c72 -2 89 1 102 16 26
28 21 48 -20 80 -44 34 -83 47 -83 27z"/>
<path d="M503 742 c-6 -4 -24 -37 -41 -73 -30 -66 -30 -66 -78 -73 -138 -19
-141 -25 -61 -104 50 -50 53 -55 48 -90 -6 -33 -10 -37 -32 -34 -14 2 -31 -4
-38 -11 -6 -8 -20 -13 -30 -10 -19 5 -71 -53 -71 -79 0 -22 22 -38 50 -37 23
1 23 2 -5 8 -33 7 -46 38 -23 55 8 6 17 19 21 30 5 13 13 17 31 12 16 -4 26
-1 30 9 8 22 44 18 58 -5 7 -11 17 -20 23 -20 5 0 23 -11 40 -24 25 -20 27
-26 16 -39 -7 -9 -33 -18 -59 -20 l-47 -3 47 -2 c54 -2 81 17 73 51 -4 17 2
26 25 39 30 17 32 17 106 -20 90 -44 96 -40 78 61 l-12 72 54 55 c80 82 78 87
-59 106 -47 6 -48 7 -82 74 -37 73 -45 83 -62 72z m51 -81 c38 -74 31 -70 149
-87 26 -3 47 -9 47 -12 0 -4 -25 -32 -56 -63 l-56 -57 11 -64 c18 -106 21
-103 -61 -62 l-71 36 -47 -22 c-41 -19 -50 -20 -69 -9 -21 13 -22 20 -17 70
l5 55 -54 54 c-30 30 -55 57 -55 61 0 4 21 10 48 13 118 17 110 12 144 87 17
38 35 69 39 69 5 0 24 -31 43 -69z"/>
</g>
</svg>
